<?xml version="1.0" encoding="UTF-8" standalone="no"?>
<svg
   xmlns:dc="http://purl.org/dc/elements/1.1/"
   xmlns:cc="http://creativecommons.org/ns#"
   xmlns:rdf="http://www.w3.org/1999/02/22-rdf-syntax-ns#"
   xmlns:svg="http://www.w3.org/2000/svg"
   xmlns="http://www.w3.org/2000/svg"
   xmlns:sodipodi="http://sodipodi.sourceforge.net/DTD/sodipodi-0.dtd"
   xmlns:inkscape="http://www.inkscape.org/namespaces/inkscape"
   viewBox="0 0 172.60105 174.20439"
   height="49.164352mm"
   width="48.711857mm"
   xml:space="preserve"
   version="1.1"
   id="svg2"
   inkscape:version="0.91 r13725"
   sodipodi:docname="somente_logo_baldoequeiroz.svg"
   inkscape:export-filename="C:\Users\Franklin\Downloads\path40-1.png"
   inkscape:export-xdpi="90"
   inkscape:export-ydpi="90"><sodipodi:namedview
     pagecolor="#ffffff"
     bordercolor="#666666"
     borderopacity="1"
     objecttolerance="10"
     gridtolerance="10"
     guidetolerance="10"
     inkscape:pageopacity="0"
     inkscape:pageshadow="2"
     inkscape:window-width="1360"
     inkscape:window-height="706"
     id="namedview31"
     showgrid="false"
     inkscape:zoom="0.87484982"
     inkscape:cx="181.11796"
     inkscape:cy="-7.6824107"
     inkscape:window-x="-8"
     inkscape:window-y="-8"
     inkscape:window-maximized="1"
     inkscape:current-layer="svg2"
     units="mm"
     fit-margin-top="0"
     fit-margin-left="0"
     fit-margin-right="0"
     fit-margin-bottom="0" /><metadata
     id="metadata8"><rdf:RDF><cc:Work
         rdf:about=""><dc:format>image/svg+xml</dc:format><dc:type
           rdf:resource="http://purl.org/dc/dcmitype/StillImage" /><dc:title></dc:title></cc:Work></rdf:RDF></metadata><defs
     id="defs6" /><g
     id="g4173"
     transform="matrix(0.26078364,0,0,0.26078364,29.046142,1.7531742e-5)"><g
       id="g4168"><path
         style="fill:#ed1c24;fill-opacity:1;fill-rule:nonzero;stroke:none"
         d="m 156.8075,145.51793 c 82.80481,-2.63709 158.04379,71.78923 157.06682,154.54703 2.54286,78.46105 -62.15193,152.18828 -140.6906,158.56207 C 96.680525,467.43566 17.829748,412.67282 3.6666824,336.09938 -3.4195659,290.56786 1.2351602,244.28199 0,198.37508 0,153.57577 0,108.77646 0,63.97715 21.7442,42.651423 43.4884,21.325696 65.2326,-3.052e-5 65.862954,105.57041 63.948562,211.22151 66.231823,316.74089 c 7.541237,58.40402 79.348117,96.48318 131.475267,67.71843 49.8481,-23.81149 67.76437,-95.67272 31.26437,-138.40802 -21.78755,-27.79683 -60.35292,-41.88103 -94.74306,-32.79301 -5.0181,-21.11728 -10.0362,-42.23455 -15.0543,-63.35183 12.51285,-1.65883 24.93315,-4.70248 37.6334,-4.38853 z"
         id="path40"
         inkscape:connector-curvature="0" /><path
         style="fill:#a21624;fill-opacity:1;fill-rule:nonzero;stroke:none"
         d="m 439.2726,602.77083 c -21.74157,21.74421 -43.48313,43.48841 -65.2247,65.23262 -0.61347,-106.10138 1.24921,-212.27944 -0.97144,-318.33229 -7.03793,-55.46826 -71.6874,-93.48996 -123.5172,-71.7152 -53.11075,18.9262 -77.46421,90.57786 -44.38306,137.04816 20.93499,31.97305 63.46519,49.92518 100.4964,37.85863 4.8086,21.11675 9.6172,42.2335 14.4258,63.35025 -81.17202,22.21479 -173.21263,-33.71552 -191.11778,-115.9519 -17.39119,-71.06593 21.07485,-151.21024 88.71201,-180.19969 68.89169,-32.24425 158.86318,-5.53051 197.77688,60.23051 22.51257,34.69924 25.81405,76.8983 23.80309,117.08979 0,68.46304 0,136.92608 0,205.38912 z"
         id="path42"
         inkscape:connector-curvature="0" /><path
         style="fill:#ed1c24;fill-opacity:1;fill-rule:nonzero;stroke:none"
         d="M 301.3851,363.47983 C 272.10323,438.0296 179.99387,478.52785 105.02065,450.77131 38.57544,428.31619 -6.8272459,357.7216 0,287.93087 L 0,63.97715 65.2326,-3.052e-5 C 65.862952,105.57041 63.948566,211.22152 66.23182,316.74089 c 7.516751,58.57205 80.07894,96.98781 132.05292,67.18658 27.76263,-7.96001 35.34753,-48.03181 56.57619,-52.22907"
         id="path40-1"
         inkscape:connector-curvature="0"
         sodipodi:nodetypes="cccccccc" /></g></g></svg>