<?xml version="1.0" encoding="UTF-8" standalone="no"?>
<svg
   xmlns:dc="http://purl.org/dc/elements/1.1/"
   xmlns:cc="http://creativecommons.org/ns#"
   xmlns:rdf="http://www.w3.org/1999/02/22-rdf-syntax-ns#"
   xmlns:svg="http://www.w3.org/2000/svg"
   xmlns="http://www.w3.org/2000/svg"
   xmlns:sodipodi="http://sodipodi.sourceforge.net/DTD/sodipodi-0.dtd"
   xmlns:inkscape="http://www.inkscape.org/namespaces/inkscape"
   viewBox="0 0 4412.4287 668.00342"
   height="188.52542mm"
   width="1245.2854mm"
   xml:space="preserve"
   version="1.1"
   id="svg2"
   inkscape:version="0.91 r13725"
   sodipodi:docname="80621_Baldo_Queiroz_Advogados_logo_MR-feito2.svg"
   inkscape:export-filename="C:\Users\Franklin\Downloads\path40-1.png"
   inkscape:export-xdpi="90"
   inkscape:export-ydpi="90"><sodipodi:namedview
     pagecolor="#ffffff"
     bordercolor="#666666"
     borderopacity="1"
     objecttolerance="10"
     gridtolerance="10"
     guidetolerance="10"
     inkscape:pageopacity="0"
     inkscape:pageshadow="2"
     inkscape:window-width="1360"
     inkscape:window-height="706"
     id="namedview31"
     showgrid="false"
     inkscape:zoom="0.07732653"
     inkscape:cx="3950.7786"
     inkscape:cy="786.00812"
     inkscape:window-x="-8"
     inkscape:window-y="-8"
     inkscape:window-maximized="1"
     inkscape:current-layer="svg2"
     units="mm"
     fit-margin-top="0"
     fit-margin-left="0"
     fit-margin-right="0"
     fit-margin-bottom="0" /><metadata
     id="metadata8"><rdf:RDF><cc:Work
         rdf:about=""><dc:format>image/svg+xml</dc:format><dc:type
           rdf:resource="http://purl.org/dc/dcmitype/StillImage" /><dc:title></dc:title></cc:Work></rdf:RDF></metadata><defs
     id="defs6" /><g
     id="g4228"
     transform="matrix(1.6350967,0,0,1.6350967,616.83306,-1126.3373)"
     inkscape:export-xdpi="90"
     inkscape:export-ydpi="90"><path
       inkscape:connector-curvature="0"
       d="m 90.626238,909.26917 c 26.758452,0 40.139822,-13.58828 40.139822,-40.76485 0,-26.44831 -17.92805,-39.67247 -53.781142,-39.67247 l -12.543397,0 0,-18.97103 c 42.856049,-5.74688 64.285739,-21.21913 64.285739,-46.41041 0,-20.90408 -11.91583,-31.3577 -35.749235,-31.3577 l -63.970847,0 0,177.17646 61.61906,0 z M 0,932.78753 0,708.57325 l 95.643438,0 c 42.647702,0 63.972592,17.4037 63.972592,52.21111 0,25.50792 -13.90381,43.74595 -41.70684,54.72201 29.6843,5.54107 44.52962,22.52682 44.52962,50.95726 0,44.21614 -23.36226,66.3239 -70.087242,66.3239 L 0,932.78753"
       style="fill:#ed1c24;fill-opacity:1;fill-rule:nonzero;stroke:none"
       id="path14" /><path
       inkscape:connector-curvature="0"
       d="m 264.35172,855.95934 c -25.19128,0 -37.78692,8.88629 -37.78692,26.65413 0,17.77258 9.9296,26.6557 29.79195,26.6557 20.06976,0 37.05392,-5.33209 50.95726,-15.9931 l 0,-34.18048 c -14.32129,-2.09136 -28.641,-3.13625 -42.96229,-3.13625 z m -66.79204,27.12274 c 0,-33.76094 22.26402,-50.6422 66.79204,-50.6422 14.32129,0 28.641,1.04489 42.96229,3.13625 l 0,-15.52291 c 0,-18.91879 -14.79149,-28.37977 -44.3713,-28.37977 -16.93509,0 -34.28655,2.61538 -52.05438,7.83982 l 0,-23.51946 c 17.76783,-5.22602 35.11929,-7.83983 52.05438,-7.83983 48.91814,0 73.378,17.038 73.378,51.11557 l 0,113.51798 -16.30657,0 -10.03409,-16.30705 c -16.41106,10.87173 -34.28655,16.30705 -53.6233,16.30705 -39.1991,0 -58.79707,-16.56669 -58.79707,-49.70545"
       style="fill:#ed1c24;fill-opacity:1;fill-rule:nonzero;stroke:none"
       id="path16" /><path
       inkscape:connector-curvature="0"
       d="m 384.92696,932.78753 29.00782,0 0,-224.21539 -29.00782,0 0,224.21539 z"
       style="fill:#ed1c24;fill-opacity:1;fill-rule:nonzero;stroke:none"
       id="path18" /><path
       inkscape:connector-curvature="0"
       d="m 573.07949,801.70911 c -11.70748,-5.64555 -25.08679,-8.46833 -40.13791,-8.46833 -33.13718,0 -49.70339,17.61585 -49.70339,52.83963 0,41.70683 16.56621,62.56183 49.70339,62.56183 15.05112,0 28.43043,-2.04069 40.13791,-6.11417 l 0,-100.81896 z m 29.00829,121.20091 c -19.96843,6.58374 -44.58344,9.87751 -73.84978,9.87751 -49.02579,0 -73.53632,-28.5354 -73.53632,-85.60841 0,-52.68289 26.0272,-79.02514 78.08158,-79.02514 14.21522,0 27.64835,2.61381 40.29623,7.83983 l 0,-67.42056 29.00829,0 0,214.33677"
       style="fill:#ed1c24;fill-opacity:1;fill-rule:nonzero;stroke:none"
       id="path20" /><path
       inkscape:connector-curvature="0"
       d="m 719.68193,909.26917 c 32.92661,0 49.38992,-19.80694 49.38992,-59.42558 0,-38.77957 -16.46331,-58.17014 -49.38992,-58.17014 -32.92662,0 -49.38993,19.39057 -49.38993,58.17014 0,39.61864 16.46331,59.42558 49.38993,59.42558 z M 641.2853,850.47052 c 0,-54.87716 26.1301,-82.31654 78.39663,-82.31654 52.26494,0 78.39662,27.43938 78.39662,82.31654 0,54.77425 -26.13168,82.15932 -78.39662,82.15932 -52.05597,0 -78.18765,-27.38507 -78.39663,-82.15932"
       style="fill:#ed1c24;fill-opacity:1;fill-rule:nonzero;stroke:none"
       id="path22" /><path
       inkscape:connector-curvature="0"
       d="m 977.13581,830.87255 c -26.8631,0 -40.29465,13.11808 -40.29465,39.35425 0,26.02878 15.7303,39.04237 47.19566,39.04237 35.74778,0 53.62328,-17.87707 53.62328,-53.62488 l 0,-24.77174 -60.52429,0 z m -69.30135,-61.93332 c 0,-40.2424 26.6557,-60.36598 79.96395,-60.36598 19.33829,0 38.15259,2.61222 56.44609,7.83982 l 0,23.51788 c -18.2935,-5.22602 -36.4317,-7.83824 -54.40698,-7.83824 -35.33143,0 -52.99636,12.02095 -52.99636,36.06127 0,26.13485 13.32706,39.19752 39.98277,39.19752 l 60.83617,0 0,-22.26243 9.8774,0 15.9915,22.26243 28.5365,0 0,23.52105 -25.3987,0 0,25.08679 c 0,51.53353 -27.0752,77.29823 -81.21939,77.29823 -51.74091,0 -77.61295,-20.74925 -77.61295,-62.2471 0,-25.81822 10.08632,-43.22034 30.26056,-52.21112 -20.17424,-8.88312 -30.26056,-25.50474 -30.26056,-49.86012"
       style="fill:#ed1c24;fill-opacity:1;fill-rule:nonzero;stroke:none"
       id="path24" /><path
       inkscape:connector-curvature="0"
       d="m 1301.863,910.8365 c 53.5109,0 80.2743,-30.26056 80.2743,-90.78328 0,-59.68523 -26.7634,-89.52942 -80.2743,-89.52942 -54.6761,0 -82.0094,29.84419 -82.0094,89.52942 0,60.52272 27.3333,90.78328 82.0094,90.78328 z m -112.5834,-89.84288 c 0,-75.99022 37.5241,-113.98929 112.5834,-113.98929 73.8989,0 110.8499,37.99907 110.8499,113.98929 0,62.508 -25.3512,99.40677 -76.0504,110.69503 l 36.3748,42.33662 -22.5744,16.93113 -48.5999,-56.59996 c -75.0593,0 -112.5834,-37.78581 -112.5834,-113.36282"
       style="fill:#ed1c24;fill-opacity:1;fill-rule:nonzero;stroke:none"
       id="path26" /><path
       inkscape:connector-curvature="0"
       d="m 1596.936,768.15398 0,164.63355 -19.9114,0 -5.0123,-21.00904 c -19.9621,14.00671 -40.0382,21.00904 -60.2124,21.00904 -37.8376,0 -56.7627,-20.43594 -56.7627,-61.30528 l 0,-103.32827 29.013,0 0,103.79689 c 0,24.46144 12.1239,36.69137 36.3747,36.69137 16.6248,0 32.4628,-6.95166 47.5123,-20.855 l 0,-119.63326 28.9988,0"
       style="fill:#ed1c24;fill-opacity:1;fill-rule:nonzero;stroke:none"
       id="path28" /><path
       inkscape:connector-curvature="0"
       d="m 1665.1545,834.63573 89.0529,0 c -0.6333,-28.84997 -14.7393,-43.27575 -42.3338,-43.27575 -29.2727,0 -44.851,14.42578 -46.7191,43.27575 z m 46.7191,-66.48175 c 46.83,0 70.2449,23.15376 70.2449,69.45968 0,6.58754 -0.4749,13.64052 -1.4248,21.16688 l -115.5392,0 c 0,33.6612 19.647,50.48863 58.9411,50.48863 18.713,0 35.3362,-2.09135 49.8696,-6.27249 l 0,23.5182 c -14.5334,4.18113 -32.2015,6.27265 -53.0042,6.27265 -56.5506,0 -84.8259,-28.0652 -84.8259,-84.19781 0,-53.62171 25.2515,-80.43574 75.7385,-80.43574"
       style="fill:#ed1c24;fill-opacity:1;fill-rule:nonzero;stroke:none"
       id="path30" /><path
       inkscape:connector-curvature="0"
       d="m 1853.2975,768.15398 0,164.63355 -29.0035,0 0,-164.63355 29.0035,0 z m 0,-59.58073 0,27.43937 -29.0035,0 0,-27.43937 29.0035,0"
       style="fill:#ed1c24;fill-opacity:1;fill-rule:nonzero;stroke:none"
       id="path32" /><path
       inkscape:connector-curvature="0"
       d="m 1903.4679,932.78753 0,-164.63355 19.5996,0 5.1769,21.01174 c 14.4226,-14.00624 31.7741,-21.01174 52.0544,-21.01174 l 0,24.1464 c -19.647,0 -35.5895,6.95325 -47.8273,20.855 l 0,119.63215 -29.0036,0"
       style="fill:#ed1c24;fill-opacity:1;fill-rule:nonzero;stroke:none"
       id="path34" /><path
       inkscape:connector-curvature="0"
       d="m 2079.8639,909.26917 c 32.9298,0 49.3788,-19.80694 49.3788,-59.42558 0,-38.77957 -16.449,-58.17014 -49.3788,-58.17014 -32.9298,0 -49.3947,19.39057 -49.3947,58.17014 0,39.61864 16.4649,59.42558 49.3947,59.42558 z m -78.3982,-58.79865 c 0,-54.87716 26.138,-82.31654 78.3982,-82.31654 52.2602,0 78.3982,27.43938 78.3982,82.31654 0,54.77425 -26.138,82.15932 -78.3982,82.15932 -52.0544,0 -78.1924,-27.38507 -78.3982,-82.15932"
       style="fill:#ed1c24;fill-opacity:1;fill-rule:nonzero;stroke:none"
       id="path36" /><path
       inkscape:connector-curvature="0"
       d="m 2192.7434,768.15398 128.5844,0 0,23.51947 -98.3143,119.16305 95.1797,0 0,21.95103 -128.5845,0 0,-21.95103 99.5809,-119.16305 -96.4462,0 0,-23.51947"
       style="fill:#ed1c24;fill-opacity:1;fill-rule:nonzero;stroke:none"
       id="path38" /><path
       inkscape:connector-curvature="0"
       d="m 511.69712,1050.0152 -16.91926,-30.0789 -16.23533,30.0789 33.15459,0 z m -24.43928,-43.0663 16.91926,0 43.57813,72.2886 -19.82436,0 -9.05569,-15.8942 -47.85267,0 -9.05728,15.8942 -17.60318,0 42.89579,-72.2886"
       style="fill:#656263;fill-opacity:1;fill-rule:nonzero;stroke:none"
       id="path44" /><path
       inkscape:connector-curvature="0"
       d="m 657.46839,1065.9086 c 5.58223,0 10.48053,-0.3438 14.69808,-1.0284 4.21121,-0.6864 7.71633,-1.9444 10.50903,-3.7767 2.79112,-1.8287 4.86981,-4.2875 6.23766,-7.3747 1.36785,-3.0865 2.0502,-6.9753 2.0502,-11.6641 0,-7.546 -2.0787,-13.1211 -6.23766,-16.7234 -4.16055,-3.6011 -10.45362,-5.405 -18.88397,-5.405 l -31.10122,0 0,45.9723 22.72788,0 z m -40.50205,-58.9597 48.70441,0 c 14.35454,0 25.17862,3.1612 32.47225,9.4847 7.28888,6.3227 10.93649,15.1241 10.93649,26.4022 0,24.2676 -15.95353,36.4017 -47.85109,36.4017 l -44.26206,0 0,-72.2886"
       style="fill:#656263;fill-opacity:1;fill-rule:nonzero;stroke:none"
       id="path46" /><path
       inkscape:connector-curvature="0"
       d="m 776.92117,1006.9489 19.99375,0 30.59145,52.465 28.88322,-52.465 18.28394,0 -41.86989,72.2886 -12.13336,0 -43.74911,-72.2886"
       style="fill:#656263;fill-opacity:1;fill-rule:nonzero;stroke:none"
       id="path48" /><path
       inkscape:connector-curvature="0"
       d="m 1020.2738,1065.3947 0,-45.1158 -58.27461,0 0,45.1158 58.27461,0 z m -75.87621,-41.3557 c 0,-3.4194 0.3103,-6.2393 0.9404,-8.4601 0.62377,-2.2214 1.67657,-3.9863 3.15999,-5.2992 1.47868,-1.3074 3.41805,-2.1911 5.81021,-2.6475 2.39216,-0.4533 5.35426,-0.6833 8.88787,-0.6833 l 55.88094,0 c 3.532,0 6.4941,0.23 8.8878,0.6833 2.3906,0.4564 4.3284,1.3401 5.8086,2.6475 1.4803,1.3129 2.5347,3.0778 3.1632,5.2992 0.6238,2.2208 0.9388,5.0407 0.9388,8.4601 l 0,38.1097 c 0,3.4161 -0.315,6.2361 -0.9388,8.4587 -0.6285,2.2226 -1.6829,3.9598 -3.1632,5.2127 -1.4802,1.2535 -3.418,2.136 -5.8086,2.6487 -2.3937,0.5127 -5.3558,0.7687 -8.8878,0.7687 l -55.88094,0 c -3.64918,0 -6.66669,-0.256 -9.05727,-0.7687 -2.39374,-0.5127 -4.30303,-1.3952 -5.7263,-2.6487 -1.42484,-1.2529 -2.45073,-2.9901 -3.0745,-5.2127 -0.6301,-2.2226 -0.9404,-5.0426 -0.9404,-8.4587 l 0,-38.1097"
       style="fill:#656263;fill-opacity:1;fill-rule:nonzero;stroke:none"
       id="path50" /><path
       inkscape:connector-curvature="0"
       d="m 1135.4568,1020.2789 0,45.1158 55.0276,0 0,-15.3795 -28.7091,0 0,-12.8175 45.9687,0 0,24.951 c 0,3.4161 -0.3135,6.2101 -0.9388,8.3727 -0.6269,2.1658 -1.6528,3.9048 -3.0761,5.2134 -1.4264,1.3116 -3.361,2.2213 -5.8086,2.734 -2.4523,0.5127 -5.4429,0.7687 -8.9734,0.7687 l -52.2934,0 c -3.6476,0 -6.6667,-0.256 -9.0573,-0.7687 -2.3937,-0.5127 -4.303,-1.4224 -5.7263,-2.734 -1.4248,-1.3086 -2.4507,-3.0476 -3.0745,-5.2134 -0.6285,-2.1626 -0.9404,-4.9566 -0.9404,-8.3727 l 0,-38.1097 c 0,-3.4194 0.3119,-6.2393 0.9404,-8.4601 0.6238,-2.2214 1.6782,-3.9567 3.16,-5.2115 1.4787,-1.2535 3.4196,-2.136 5.8102,-2.6499 2.3922,-0.5114 5.3543,-0.7686 8.8879,-0.7686 l 52.2934,0 c 6.8361,0 11.6774,1.0833 14.5255,3.2472 2.8466,2.1664 4.2714,6.4941 4.2714,12.9887 l 0,1.88 -17.2596,2.9048 0,-7.6907 -55.0276,0"
       style="fill:#656263;fill-opacity:1;fill-rule:nonzero;stroke:none"
       id="path52" /><path
       inkscape:connector-curvature="0"
       d="m 1345.4871,1050.0152 -16.9256,-30.0789 -16.2369,30.0789 33.1625,0 z m -24.4377,-43.0663 16.9129,0 43.575,72.2886 -19.826,0 -9.0493,-15.8942 -47.8495,0 -9.0621,15.8942 -17.6016,0 42.9006,-72.2886"
       style="fill:#656263;fill-opacity:1;fill-rule:nonzero;stroke:none"
       id="path54" /><path
       inkscape:connector-curvature="0"
       d="m 1491.2631,1065.9086 c 5.5743,0 10.4742,-0.3438 14.687,-1.0284 4.2112,-0.6864 7.7242,-1.9444 10.5122,-3.7767 2.7879,-1.8287 4.8745,-4.2875 6.2376,-7.3747 1.3742,-3.0865 2.0502,-6.9753 2.0502,-11.6641 0,-7.546 -2.0755,-13.1211 -6.2376,-16.7234 -4.1637,-3.6011 -10.4505,-5.405 -18.8872,-5.405 l -31.1012,0 0,45.9723 22.739,0 z m -40.5131,-58.9597 48.7123,0 c 14.3498,0 25.1738,3.1612 32.4627,9.4847 7.3,6.3227 10.9381,15.1241 10.9381,26.4022 0,24.2676 -15.9504,36.4017 -47.8511,36.4017 l -44.262,0 0,-72.2886"
       style="fill:#656263;fill-opacity:1;fill-rule:nonzero;stroke:none"
       id="path56" /><path
       inkscape:connector-curvature="0"
       d="m 1694.7913,1065.3947 0,-45.1158 -58.2762,0 0,45.1158 58.2762,0 z m -75.881,-41.3557 c 0,-3.4194 0.3166,-6.2393 0.9341,-8.4601 0.6332,-2.2214 1.6781,-3.9863 3.1663,-5.2992 1.4723,-1.3074 3.4196,-2.1911 5.8102,-2.6475 2.3906,-0.4533 5.3511,-0.6833 8.8974,-0.6833 l 55.8698,0 c 3.5304,0 6.5068,0.23 8.8815,0.6833 2.4064,0.4564 4.3379,1.3401 5.8102,2.6475 1.4882,1.3129 2.5489,3.0778 3.1664,5.2992 0.6332,2.2208 0.934,5.0407 0.934,8.4601 l 0,38.1097 c 0,3.4161 -0.3008,6.2361 -0.934,8.4587 -0.6175,2.2226 -1.6782,3.9598 -3.1664,5.2127 -1.4723,1.2535 -3.4038,2.136 -5.8102,2.6487 -2.3747,0.5127 -5.3511,0.7687 -8.8815,0.7687 l -55.8698,0 c -3.6571,0 -6.6651,-0.256 -9.0715,-0.7687 -2.3906,-0.5127 -4.2904,-1.3952 -5.7153,-2.6487 -1.4248,-1.2529 -2.4539,-2.9901 -3.0871,-5.2127 -0.6175,-2.2226 -0.9341,-5.0426 -0.9341,-8.4587 l 0,-38.1097"
       style="fill:#656263;fill-opacity:1;fill-rule:nonzero;stroke:none"
       id="path58" /><path
       inkscape:connector-curvature="0"
       d="m 1811.1696,1019.9363 0,15.2114 46.9882,0 c 3.5463,0 6.5227,0.2547 8.9766,0.7673 2.4539,0.5135 4.3853,1.3972 5.8102,2.6501 1.4248,1.2548 2.4539,2.99 3.0871,5.2108 0.6175,2.2226 0.9341,5.0414 0.9341,8.46 l 0,9.9128 c 0,3.4161 -0.3166,6.2101 -0.9341,8.3727 -0.6332,2.1658 -1.6623,3.9048 -3.0871,5.2134 -1.4249,1.3116 -3.3563,2.2213 -5.8102,2.734 -2.4539,0.5127 -5.4303,0.7687 -8.9766,0.7687 l -46.9882,0 c -3.6413,0 -6.6652,-0.2498 -9.0557,-0.7588 -2.4064,-0.5077 -4.3379,-1.4063 -5.8102,-2.6988 -1.4724,-1.2925 -2.5489,-3.0099 -3.1664,-5.1459 -0.6174,-2.1354 -0.934,-4.9078 -0.934,-8.3153 l 0,-2.05 15.8791,-2.9061 0,8.546 52.9884,0 0,-16.7487 -46.8141,0 c -3.5463,0 -6.5384,-0.2572 -8.9765,-0.7687 -2.4539,-0.5139 -4.417,-1.3951 -5.9052,-2.6499 -1.4723,-1.2511 -2.5331,-2.9902 -3.1663,-5.2115 -0.6175,-2.2213 -0.9341,-5.0414 -0.9341,-8.4588 l 0,-8.032 c 0,-3.4194 0.3166,-6.2393 0.9341,-8.4601 0.6332,-2.2214 1.694,-3.9567 3.1663,-5.2115 1.4882,-1.2535 3.4513,-2.136 5.9052,-2.6499 2.4381,-0.5114 5.4302,-0.7686 8.9765,-0.7686 l 42.8879,0 c 6.6018,0 11.4146,1.055 14.4226,3.1612 3.0397,2.1096 4.5437,6.2975 4.5437,12.5608 l 0,1.7088 -15.2142,3.248 0,-7.6914 -49.7271,0"
       style="fill:#656263;fill-opacity:1;fill-rule:nonzero;stroke:none"
       id="path60" /></g><g
     id="g4181"
     transform="translate(-941.0276,-0.00670589)"
     inkscape:export-xdpi="90"
     inkscape:export-ydpi="90"><path
       inkscape:connector-curvature="0"
       d="m 1097.8351,145.52467 c 21.7384,0 42.1232,4.07664 61.156,12.22993 19.0217,8.15487 35.6449,19.34625 49.8648,33.55671 14.2105,14.22155 25.4035,30.84317 33.5568,49.86646 8.1548,19.03277 12.2299,39.41599 12.2299,61.1544 0,21.74632 -4.0751,42.13112 -12.2299,61.1544 -8.1533,19.03278 -19.3463,35.65282 -33.5568,49.86487 -14.2199,14.21996 -30.8431,25.40184 -49.8648,33.55671 -19.0328,8.15487 -39.4176,12.22993 -61.156,12.22993 -21.7463,0 -42.1327,-4.07506 -61.1544,-12.22993 -19.0328,-8.15487 -35.6528,-19.33675 -49.86487,-33.55671 -14.21997,-14.21205 -25.40185,-30.83209 -33.55673,-49.86487 -8.15486,-19.02328 -12.2315,-39.40808 -12.2315,-61.1544 l 0,-238.348284 65.2326,-63.97718011 0,302.32546411 c 0,12.54339 2.4001,24.36487 7.2129,35.43751 4.8017,11.0853 11.3877,20.80592 19.7595,29.1666 8.3575,8.37018 18.0797,14.95455 29.165,19.75787 11.0726,4.81123 22.8941,7.21288 35.4375,7.21288 12.545,0 24.3538,-2.40165 35.4391,-7.21288 11.0742,-4.80332 20.798,-11.38769 29.1666,-19.75787 8.3591,-8.36068 14.9466,-18.0813 19.7579,-29.1666 4.8001,-11.07264 7.2113,-22.89412 7.2113,-35.43751 0,-12.54498 -2.4112,-24.35379 -7.2113,-35.43751 -4.8113,-11.07739 -11.3988,-20.79801 -19.7579,-29.16819 -8.3686,-8.36068 -18.0924,-14.94505 -29.1666,-19.75787 -11.0853,-4.80173 -22.8941,-7.21289 -35.4391,-7.21289 -4.1827,0 -8.1533,0.21531 -11.9165,0.62852 -3.7647,0.42112 -7.3221,1.04805 -10.6626,1.8808 l -15.0543,-63.35183 c 5.8514,-0.83116 11.8104,-1.77315 17.8771,-2.8212 6.0572,-1.03855 12.6416,-1.56733 19.7563,-1.56733"
       style="fill:#ed1c24;fill-opacity:1;fill-rule:nonzero;stroke:none"
       id="path40" /><path
       inkscape:connector-curvature="0"
       d="m 1380.3002,602.77757 -65.2247,65.23262 0,-304.20784 c 0,-12.54339 -2.4128,-24.35379 -7.2256,-35.43751 -4.8112,-11.07422 -11.2864,-20.798 -19.4365,-29.1666 -8.1501,-8.3591 -17.8755,-14.94505 -29.1634,-19.75787 -11.3006,-4.80173 -23.2124,-7.21289 -35.7621,-7.21289 -12.537,0 -24.4503,2.41116 -35.7494,7.21289 -11.2863,4.81282 -21.1178,11.39877 -29.4769,19.75787 -8.3702,8.3686 -14.9561,18.09238 -19.7594,29.1666 -4.8113,11.08372 -7.2113,22.89412 -7.2113,35.43751 0,12.9661 2.4,25.08838 7.2113,36.37791 4.8033,11.29112 11.3892,21.12097 19.7594,29.48165 8.3591,8.3686 18.1906,14.95456 29.4769,19.75787 11.2991,4.81123 23.2124,7.21289 35.7494,7.21289 7.1116,0 14.8374,-1.25387 23.2123,-3.76318 l 14.4258,63.35025 c -5.8624,2.09769 -12.0257,3.35155 -18.5008,3.76318 -6.4878,0.42112 -12.8616,0.62693 -19.1373,0.62693 -20.0618,0 -39.0993,-3.54787 -57.073,-10.6626 -17.9847,-7.10682 -33.9762,-16.93509 -47.9825,-29.48007 -14.0157,-12.5434 -25.5126,-27.17657 -34.4987,-43.90426 -8.9955,-16.71978 -14.5334,-34.70451 -16.62,-53.9431 -0.8438,-2.91935 -1.2555,-5.96061 -1.2555,-9.09527 0,-3.13624 0,-6.36906 0,-9.7222 0,-21.32678 4.0767,-41.60393 12.23,-60.84093 8.1548,-19.22909 19.3383,-35.95837 33.5567,-50.17834 14.212,-14.21046 30.9413,-25.5 50.1799,-33.87018 19.2275,-8.36068 39.7247,-12.54498 61.4631,-12.54498 21.7368,0 42.1248,4.1843 61.1623,12.54498 19.0249,8.37018 35.637,19.65972 49.8617,33.87018 14.2137,14.21997 25.4019,30.94925 33.5631,50.17834 8.1501,19.237 12.2252,39.51415 12.2252,60.84093 l 0,238.97522"
       style="fill:#a21624;fill-opacity:1;fill-rule:nonzero;stroke:none"
       id="path42" /><path
       sodipodi:nodetypes="cccscccsccscccscscscccc"
       inkscape:connector-curvature="0"
       d="m 1242.4127,363.48657 c -8.1533,19.03278 -19.3463,35.65282 -33.5568,49.86487 -14.2199,14.21996 -30.8431,25.40184 -49.8648,33.55671 -19.0328,8.15487 -39.4176,12.22993 -61.156,12.22993 -21.7463,0 -42.1327,-4.07506 -61.1544,-12.22993 -19.0328,-8.15487 -35.6528,-19.33675 -49.86491,-33.55671 -14.22,-14.21205 -25.4018,-30.83209 -33.5567,-49.86487 -8.1549,-19.02328 -12.23149,-39.40808 -12.23149,-61.1544 l 0,-238.348284 65.2326,-63.97718011 0,302.32546411 c 0,12.54339 2.4001,24.36487 7.2129,35.43751 4.8017,11.0853 11.3877,20.80592 19.7594,29.1666 8.3576,8.37018 18.0798,14.95455 29.1651,19.75787 11.0726,4.81123 22.8941,7.21288 35.4375,7.21288 12.545,0 24.3538,-2.40165 35.4391,-7.21288 11.0742,-4.80332 20.798,-11.38769 29.1666,-19.75787 8.3591,-8.36068 14.9466,-18.0813 19.7579,-29.1666 4.8001,-11.07264 8.3544,7.96832 8.3544,-4.57507 0,-12.54498 12.4484,10.50934 7.6483,-0.57438 -4.8113,-11.07739 17.1776,11.20748 8.8185,2.8373 -8.3686,-8.36068 20.7714,6.20144 9.6972,1.38862 -11.0853,-4.80173 21.1134,6.50375 8.5684,6.50375"
       style="fill:#ed1c24;fill-opacity:1;fill-rule:nonzero;stroke:none"
       id="path40-1" /></g></svg>