<?xml version="1.0" encoding="UTF-8" standalone="no"?>
<svg id="svg2" xmlns:rdf="http://www.w3.org/1999/02/22-rdf-syntax-ns#" xmlns="http://www.w3.org/2000/svg" xml:space="preserve" height="188.53mm" width="1245.3mm" version="1.1" xmlns:cc="http://creativecommons.org/ns#" xmlns:dc="http://purl.org/dc/elements/1.1/" viewBox="0 0 4412.4287 668.00342"><metadata id="metadata8"><rdf:RDF><cc:Work rdf:about=""><dc:format>image/svg+xml</dc:format><dc:type rdf:resource="http://purl.org/dc/dcmitype/StillImage"/><dc:title/></cc:Work></rdf:RDF></metadata><g id="g4228" transform="matrix(1.6351 0 0 1.6351 616.83 -1126.3)"><path id="path14" d="m90.626 909.27c26.758 0 40.14-13.588 40.14-40.765 0-26.448-17.928-39.672-53.781-39.672h-12.543v-18.971c42.856-5.7469 64.286-21.219 64.286-46.41 0-20.904-11.916-31.358-35.749-31.358h-63.971v177.18h61.619zm-90.626 23.52v-224.22h95.643c42.648 0 63.973 17.404 63.973 52.211 0 25.508-13.904 43.746-41.707 54.722 29.684 5.5411 44.53 22.527 44.53 50.957 0 44.216-23.362 66.324-70.087 66.324l-92.352 0.01" fill="#ed1c24"/><path id="path16" d="m264.35 855.96c-25.191 0-37.787 8.8863-37.787 26.654 0 17.773 9.9296 26.656 29.792 26.656 20.07 0 37.054-5.3321 50.957-15.993v-34.18c-14.321-2.0914-28.641-3.1362-42.962-3.1362zm-66.792 27.123c0-33.761 22.264-50.642 66.792-50.642 14.321 0 28.641 1.0449 42.962 3.1362v-15.523c0-18.919-14.791-28.38-44.371-28.38-16.935 0-34.287 2.6154-52.054 7.8398v-23.519c17.768-5.226 35.119-7.8398 52.054-7.8398 48.918 0 73.378 17.038 73.378 51.116v113.52h-16.307l-10.034-16.307c-16.411 10.872-34.287 16.307-53.623 16.307-39.199 0-58.797-16.567-58.797-49.705" fill="#ed1c24"/><path id="path18" d="m384.93 932.79h29.008v-224.22h-29.008v224.22z" fill="#ed1c24"/><path id="path20" d="m573.08 801.71c-11.707-5.6456-25.087-8.4683-40.138-8.4683-33.137 0-49.703 17.616-49.703 52.84 0 41.707 16.566 62.562 49.703 62.562 15.051 0 28.43-2.0407 40.138-6.1142v-100.82zm29.008 121.2c-19.968 6.5837-44.583 9.8775-73.85 9.8775-49.026 0-73.536-28.535-73.536-85.608 0-52.683 26.027-79.025 78.082-79.025 14.215 0 27.648 2.6138 40.296 7.8398v-67.421h29.008v214.34" fill="#ed1c24"/><path id="path22" d="m719.68 909.27c32.927 0 49.39-19.807 49.39-59.426 0-38.78-16.463-58.17-49.39-58.17s-49.39 19.391-49.39 58.17c0 39.619 16.463 59.426 49.39 59.426zm-78.39-58.8c0-54.877 26.13-82.317 78.397-82.317 52.265 0 78.397 27.439 78.397 82.317 0 54.774-26.132 82.159-78.397 82.159-52.056 0-78.188-27.385-78.397-82.159" fill="#ed1c24"/><path id="path24" d="m977.14 830.87c-26.863 0-40.295 13.118-40.295 39.354 0 26.029 15.73 39.042 47.196 39.042 35.748 0 53.623-17.877 53.623-53.625v-24.772h-60.524zm-69.301-61.933c0-40.242 26.656-60.366 79.964-60.366 19.338 0 38.153 2.6122 56.446 7.8398v23.518c-18.294-5.226-36.432-7.8382-54.407-7.8382-35.331 0-52.996 12.021-52.996 36.061 0 26.135 13.327 39.198 39.983 39.198h60.836v-22.262h9.8774l15.992 22.262h28.536v23.521h-25.399v25.087c0 51.534-27.075 77.298-81.219 77.298-51.741 0-77.613-20.749-77.613-62.247 0-25.818 10.086-43.22 30.261-52.211-20.174-8.8831-30.261-25.505-30.261-49.86" fill="#ed1c24"/><path id="path26" d="m1301.9 910.84c53.511 0 80.274-30.261 80.274-90.783 0-59.685-26.763-89.529-80.274-89.529-54.676 0-82.009 29.844-82.009 89.529 0 60.523 27.333 90.783 82.009 90.783zm-112.58-89.843c0-75.99 37.524-113.99 112.58-113.99 73.899 0 110.85 37.999 110.85 113.99 0 62.508-25.351 99.407-76.05 110.7l36.375 42.337-22.574 16.931-48.6-56.6c-75.059 0-112.58-37.786-112.58-113.36" fill="#ed1c24"/><path id="path28" d="m1596.9 768.15v164.63h-19.911l-5.0123-21.009c-19.962 14.007-40.038 21.009-60.212 21.009-37.838 0-56.763-20.436-56.763-61.305v-103.33h29.013v103.8c0 24.461 12.124 36.691 36.375 36.691 16.625 0 32.463-6.9517 47.512-20.855v-119.63h28.999" fill="#ed1c24"/><path id="path30" d="m1665.2 834.64h89.053c-0.6333-28.85-14.739-43.276-42.334-43.276-29.273 0-44.851 14.426-46.719 43.276zm46.719-66.482c46.83 0 70.245 23.154 70.245 69.46 0 6.5875-0.4749 13.641-1.4248 21.167h-115.54c0 33.661 19.647 50.489 58.941 50.489 18.713 0 35.336-2.0914 49.87-6.2725v23.518c-14.533 4.1811-32.202 6.2726-53.004 6.2726-56.551 0-84.826-28.065-84.826-84.198 0-53.622 25.252-80.436 75.738-80.436" fill="#ed1c24"/><path id="path32" d="m1853.3 768.15v164.63h-29.004v-164.63h29.004zm0-59.581v27.439h-29.004v-27.439h29.004" fill="#ed1c24"/><path id="path34" d="m1903.5 932.79v-164.63h19.6l5.1769 21.012c14.423-14.006 31.774-21.012 52.054-21.012v24.146c-19.647 0-35.59 6.9532-47.827 20.855v119.63h-29.004" fill="#ed1c24"/><path id="path36" d="m2079.9 909.27c32.93 0 49.379-19.807 49.379-59.426 0-38.78-16.449-58.17-49.379-58.17s-49.395 19.391-49.395 58.17c0 39.619 16.465 59.426 49.395 59.426zm-78.398-58.799c0-54.877 26.138-82.317 78.398-82.317s78.398 27.439 78.398 82.317c0 54.774-26.138 82.159-78.398 82.159-52.054 0-78.192-27.385-78.398-82.159" fill="#ed1c24"/><path id="path38" d="m2192.7 768.15h128.58v23.519l-98.314 119.16h95.18v21.951h-128.58v-21.951l99.581-119.16h-96.446v-23.519" fill="#ed1c24"/><path id="path44" d="m511.7 1050-16.919-30.079-16.235 30.079h33.155zm-24.439-43.066h16.919l43.578 72.289h-19.824l-9.0557-15.894h-47.853l-9.0573 15.894h-17.603l42.896-72.289" fill="#656263"/><path id="path46" d="m657.47 1065.9c5.5822 0 10.481-0.3438 14.698-1.0284 4.2112-0.6864 7.7163-1.9444 10.509-3.7767 2.7911-1.8287 4.8698-4.2875 6.2377-7.3747 1.3678-3.0865 2.0502-6.9753 2.0502-11.664 0-7.546-2.0787-13.121-6.2377-16.723-4.1606-3.6011-10.454-5.405-18.884-5.405h-31.101v45.972h22.728zm-40.502-58.96h48.704c14.355 0 25.179 3.1612 32.472 9.4847 7.2889 6.3227 10.936 15.124 10.936 26.402 0 24.268-15.954 36.402-47.851 36.402h-44.262v-72.289" fill="#656263"/><path id="path48" d="m776.92 1006.9h19.994l30.591 52.465 28.883-52.465h18.284l-41.87 72.289h-12.133l-43.749-72.289" fill="#656263"/><path id="path50" d="m1020.3 1065.4v-45.116h-58.275v45.116h58.275zm-75.876-41.356c0-3.4194 0.3103-6.2393 0.9404-8.4601 0.62377-2.2214 1.6766-3.9863 3.16-5.2992 1.4787-1.3074 3.418-2.1911 5.8102-2.6475 2.3922-0.4533 5.3543-0.6833 8.8879-0.6833h55.881c3.532 0 6.4941 0.23 8.8878 0.6833 2.3906 0.4564 4.3284 1.3401 5.8086 2.6475 1.4803 1.3129 2.5347 3.0778 3.1632 5.2992 0.6238 2.2208 0.9388 5.0407 0.9388 8.4601v38.11c0 3.4161-0.315 6.2361-0.9388 8.4587-0.6285 2.2226-1.6829 3.9598-3.1632 5.2127-1.4802 1.2535-3.418 2.136-5.8086 2.6487-2.3937 0.5127-5.3558 0.7687-8.8878 0.7687h-55.881c-3.6492 0-6.6667-0.256-9.0573-0.7687-2.3937-0.5127-4.303-1.3952-5.7263-2.6487-1.4248-1.2529-2.4507-2.9901-3.0745-5.2127-0.6301-2.2226-0.9404-5.0426-0.9404-8.4587v-38.11" fill="#656263"/><path id="path52" d="m1135.5 1020.3v45.116h55.028v-15.38h-28.709v-12.818h45.969v24.951c0 3.4161-0.3135 6.2101-0.9388 8.3727-0.6269 2.1658-1.6528 3.9048-3.0761 5.2134-1.4264 1.3116-3.361 2.2213-5.8086 2.734-2.4523 0.5127-5.4429 0.7687-8.9734 0.7687h-52.293c-3.6476 0-6.6667-0.256-9.0573-0.7687-2.3937-0.5127-4.303-1.4224-5.7263-2.734-1.4248-1.3086-2.4507-3.0476-3.0745-5.2134-0.6285-2.1626-0.9404-4.9566-0.9404-8.3727v-38.11c0-3.4194 0.3119-6.2393 0.9404-8.4601 0.6238-2.2214 1.6782-3.9567 3.16-5.2115 1.4787-1.2535 3.4196-2.136 5.8102-2.6499 2.3922-0.5114 5.3543-0.7686 8.8879-0.7686h52.293c6.8361 0 11.677 1.0833 14.526 3.2472 2.8466 2.1664 4.2714 6.4941 4.2714 12.989v1.88l-17.26 2.9048v-7.6907h-55.028" fill="#656263"/><path id="path54" d="m1345.5 1050-16.926-30.079-16.237 30.079h33.162zm-24.438-43.066h16.913l43.575 72.289h-19.826l-9.0493-15.894h-47.85l-9.0621 15.894h-17.602l42.901-72.289" fill="#656263"/><path id="path56" d="m1491.3 1065.9c5.5743 0 10.474-0.3438 14.687-1.0284 4.2112-0.6864 7.7242-1.9444 10.512-3.7767 2.7879-1.8287 4.8745-4.2875 6.2376-7.3747 1.3742-3.0865 2.0502-6.9753 2.0502-11.664 0-7.546-2.0755-13.121-6.2376-16.723-4.1637-3.6011-10.45-5.405-18.887-5.405h-31.101v45.972h22.739zm-40.513-58.96h48.712c14.35 0 25.174 3.1612 32.463 9.4847 7.3 6.3227 10.938 15.124 10.938 26.402 0 24.268-15.95 36.402-47.851 36.402h-44.262v-72.289" fill="#656263"/><path id="path58" d="m1694.8 1065.4v-45.116h-58.276v45.116h58.276zm-75.881-41.356c0-3.4194 0.3166-6.2393 0.9341-8.4601 0.6332-2.2214 1.6781-3.9863 3.1663-5.2992 1.4723-1.3074 3.4196-2.1911 5.8102-2.6475 2.3906-0.4533 5.3511-0.6833 8.8974-0.6833h55.87c3.5304 0 6.5068 0.23 8.8815 0.6833 2.4064 0.4564 4.3379 1.3401 5.8102 2.6475 1.4882 1.3129 2.5489 3.0778 3.1664 5.2992 0.6332 2.2208 0.934 5.0407 0.934 8.4601v38.11c0 3.4161-0.3008 6.2361-0.934 8.4587-0.6175 2.2226-1.6782 3.9598-3.1664 5.2127-1.4723 1.2535-3.4038 2.136-5.8102 2.6487-2.3747 0.5127-5.3511 0.7687-8.8815 0.7687h-55.87c-3.6571 0-6.6651-0.256-9.0715-0.7687-2.3906-0.5127-4.2904-1.3952-5.7153-2.6487-1.4248-1.2529-2.4539-2.9901-3.0871-5.2127-0.6175-2.2226-0.9341-5.0426-0.9341-8.4587v-38.11" fill="#656263"/><path id="path60" d="m1811.2 1019.9v15.211h46.988c3.5463 0 6.5227 0.2547 8.9766 0.7673 2.4539 0.5135 4.3853 1.3972 5.8102 2.6501 1.4248 1.2548 2.4539 2.99 3.0871 5.2108 0.6175 2.2226 0.9341 5.0414 0.9341 8.46v9.9128c0 3.4161-0.3166 6.2101-0.9341 8.3727-0.6332 2.1658-1.6623 3.9048-3.0871 5.2134-1.4249 1.3116-3.3563 2.2213-5.8102 2.734s-5.4303 0.7687-8.9766 0.7687h-46.988c-3.6413 0-6.6652-0.2498-9.0557-0.7588-2.4064-0.5077-4.3379-1.4063-5.8102-2.6988-1.4724-1.2925-2.5489-3.0099-3.1664-5.1459-0.6174-2.1354-0.934-4.9078-0.934-8.3153v-2.05l15.879-2.9061v8.546h52.988v-16.749h-46.814c-3.5463 0-6.5384-0.2572-8.9765-0.7687-2.4539-0.5139-4.417-1.3951-5.9052-2.6499-1.4723-1.2511-2.5331-2.9902-3.1663-5.2115-0.6175-2.2213-0.9341-5.0414-0.9341-8.4588v-8.032c0-3.4194 0.3166-6.2393 0.9341-8.4601 0.6332-2.2214 1.694-3.9567 3.1663-5.2115 1.4882-1.2535 3.4513-2.136 5.9052-2.6499 2.4381-0.5114 5.4302-0.7686 8.9765-0.7686h42.888c6.6018 0 11.415 1.055 14.423 3.1612 3.0397 2.1096 4.5437 6.2975 4.5437 12.561v1.7088l-15.214 3.248v-7.6914h-49.727" fill="#656263"/></g><g id="g4181" transform="translate(-941.03 -.0067059)"><path id="path40" d="m1097.8 145.52c21.738 0 42.123 4.0766 61.156 12.23 19.022 8.1549 35.645 19.346 49.865 33.557 14.21 14.222 25.404 30.843 33.557 49.866 8.1548 19.033 12.23 39.416 12.23 61.154 0 21.746-4.0751 42.131-12.23 61.154-8.1533 19.033-19.346 35.653-33.557 49.865-14.22 14.22-30.843 25.402-49.865 33.557-19.033 8.1549-39.418 12.23-61.156 12.23-21.746 0-42.133-4.0751-61.154-12.23-19.033-8.1549-35.653-19.337-49.865-33.557-14.22-14.212-25.402-30.832-33.557-49.865-8.1549-19.023-12.232-39.408-12.232-61.154v-238.35l65.233-63.977v302.33c0 12.543 2.4001 24.365 7.2129 35.438 4.8017 11.085 11.388 20.806 19.76 29.167 8.3575 8.3702 18.08 14.955 29.165 19.758 11.073 4.8112 22.894 7.2129 35.438 7.2129 12.545 0 24.354-2.4016 35.439-7.2129 11.074-4.8033 20.798-11.388 29.167-19.758 8.3591-8.3607 14.947-18.081 19.758-29.167 4.8001-11.073 7.2113-22.894 7.2113-35.438 0-12.545-2.4112-24.354-7.2113-35.438-4.8113-11.077-11.399-20.798-19.758-29.168-8.3686-8.3607-18.092-14.945-29.167-19.758-11.085-4.8017-22.894-7.2129-35.439-7.2129-4.1827 0-8.1533 0.21531-11.916 0.62852-3.7647 0.42112-7.3221 1.048-10.663 1.8808l-15.054-63.352c5.8514-0.83116 11.81-1.7732 17.877-2.8212 6.0572-1.0386 12.642-1.5673 19.756-1.5673" fill="#ed1c24"/><path id="path42" d="m1380.3 602.78-65.225 65.233v-304.21c0-12.543-2.4128-24.354-7.2256-35.438-4.8112-11.074-11.286-20.798-19.436-29.167-8.1501-8.3591-17.876-14.945-29.163-19.758-11.301-4.8017-23.212-7.2129-35.762-7.2129-12.537 0-24.45 2.4112-35.749 7.2129-11.286 4.8128-21.118 11.399-29.477 19.758-8.3702 8.3686-14.956 18.092-19.759 29.167-4.8113 11.084-7.2113 22.894-7.2113 35.438 0 12.966 2.4 25.088 7.2113 36.378 4.8033 11.291 11.389 21.121 19.759 29.482 8.3591 8.3686 18.191 14.955 29.477 19.758 11.299 4.8112 23.212 7.2129 35.749 7.2129 7.1116 0 14.837-1.2539 23.212-3.7632l14.426 63.35c-5.8624 2.0977-12.026 3.3516-18.501 3.7632-6.4878 0.42112-12.862 0.62693-19.137 0.62693-20.062 0-39.099-3.5479-57.073-10.663-17.985-7.1068-33.976-16.935-47.982-29.48-14.016-12.543-25.513-27.177-34.499-43.904-8.9955-16.72-14.533-34.705-16.62-53.943-0.8438-2.9194-1.2555-5.9606-1.2555-9.0953v-9.7222c0-21.327 4.0767-41.604 12.23-60.841 8.1548-19.229 19.338-35.958 33.557-50.178 14.212-14.21 30.941-25.5 50.18-33.87 19.228-8.3607 39.725-12.545 61.463-12.545 21.737 0 42.125 4.1843 61.162 12.545 19.025 8.3702 35.637 19.66 49.862 33.87 14.214 14.22 25.402 30.949 33.563 50.178 8.1501 19.237 12.225 39.514 12.225 60.841v238.98" fill="#a21624"/><path id="path40-1" d="m1242.4 363.49c-8.1533 19.033-19.346 35.653-33.557 49.865-14.22 14.22-30.843 25.402-49.865 33.557-19.033 8.1549-39.418 12.23-61.156 12.23-21.746 0-42.133-4.0751-61.154-12.23-19.033-8.1549-35.653-19.337-49.865-33.557-14.22-14.212-25.402-30.832-33.557-49.865-8.1549-19.023-12.231-39.408-12.231-61.154v-238.35l65.233-63.977v302.33c0 12.543 2.4001 24.365 7.2129 35.438 4.8017 11.085 11.388 20.806 19.759 29.167 8.3576 8.3702 18.08 14.955 29.165 19.758 11.073 4.8112 22.894 7.2129 35.438 7.2129 12.545 0 24.354-2.4016 35.439-7.2129 11.074-4.8033 20.798-11.388 29.167-19.758 8.3591-8.3607 14.947-18.081 19.758-29.167 4.8001-11.073 8.3544 7.9683 8.3544-4.5751 0-12.545 12.448 10.509 7.6483-0.57438-4.8113-11.077 17.178 11.207 8.8185 2.8373-8.3686-8.3607 20.771 6.2014 9.6972 1.3886-11.085-4.8017 21.113 6.5038 8.5684 6.5038" fill="#ed1c24"/></g></svg>
